<?xml version="1.0" encoding="UTF-8"?> <svg xmlns="http://www.w3.org/2000/svg" viewBox="0 0 80.6 19.02"> <defs> <style>.cls-1{fill:#3c3c3b;}.cls-2{fill:none;stroke:#3c3c3b;stroke-miterlimit:10;stroke-width:0.5px;}</style> </defs> <title>Fichier 1</title> <g id="Calque_2" data-name="Calque 2"> <g id="Calque_1-2" data-name="Calque 1"> <path class="cls-1" d="M15.27 9.51a6.67 6.67 0 0 1-.39 2.35 5.08 5.08 0 0 1-1.1 1.78 4.78 4.78 0 0 1-1.7 1.13 5.93 5.93 0 0 1-2.19.39H5.75V3.86h4.13a5.93 5.93 0 0 1 2.19.39 4.77 4.77 0 0 1 1.7 1.13 5.08 5.08 0 0 1 1.1 1.78 6.65 6.65 0 0 1 .4 2.35zm-.85 0a6.3 6.3 0 0 0-.32-2.11 4.4 4.4 0 0 0-.93-1.56 4 4 0 0 0-1.44-1 5 5 0 0 0-1.85-.34h-3.3v10h3.3a5 5 0 0 0 1.85-.34 4 4 0 0 0 1.44-1 4.39 4.39 0 0 0 .93-1.56 6.32 6.32 0 0 0 .32-2.09zM20.3 6.67a4.62 4.62 0 0 1 1.31-.94 3.66 3.66 0 0 1 1.56-.32 2.84 2.84 0 0 1 1.12.2 2.07 2.07 0 0 1 .79.58 2.55 2.55 0 0 1 .47.92 4.24 4.24 0 0 1 .16 1.2v5.17h-.3a.27.27 0 0 1-.29-.22l-.11-1a8.27 8.27 0 0 1-.65.57 3.89 3.89 0 0 1-.67.43 3.47 3.47 0 0 1-.76.27 3.92 3.92 0 0 1-.89.09 2.61 2.61 0 0 1-.79-.12 2 2 0 0 1-.68-.37 1.79 1.79 0 0 1-.48-.64 2.2 2.2 0 0 1-.18-.93 1.65 1.65 0 0 1 .29-.93 2.36 2.36 0 0 1 .9-.75 6 6 0 0 1 1.58-.51A13.73 13.73 0 0 1 25 9.14v-.83a2.66 2.66 0 0 0-.47-1.7A1.7 1.7 0 0 0 23.09 6a2.67 2.67 0 0 0-1 .16 3.49 3.49 0 0 0-.68.35 4.3 4.3 0 0 0-.46.35.49.49 0 0 1-.29.16.24.24 0 0 1-.14 0 .35.35 0 0 1-.1-.1zm4.67 3a15.06 15.06 0 0 0-2 .18 5.59 5.59 0 0 0-1.35.38 2 2 0 0 0-.79.57 1.2 1.2 0 0 0-.26.75 1.67 1.67 0 0 0 .13.69 1.35 1.35 0 0 0 .35.48 1.41 1.41 0 0 0 .51.28 2 2 0 0 0 .6.09 3.42 3.42 0 0 0 .85-.1 3.25 3.25 0 0 0 .72-.28 3.49 3.49 0 0 0 .62-.43q.29-.25.57-.54zM34.53 4.13L30 14.63a.54.54 0 0 1-.12.18.31.31 0 0 1-.22.07h-.54l1.4-3.11-3.41-7.64h.63a.29.29 0 0 1 .29.19l2.67 6.18q0 .12.08.24l.07.25.08-.25.07-.24 2.64-6.18a.35.35 0 0 1 .11-.14.27.27 0 0 1 .16-.05zM36.12 13.55V5.6h.42a.21.21 0 0 1 .23.2l.07 1.2a4.13 4.13 0 0 1 1.06-1.07 2.34 2.34 0 0 1 1.35-.41 1.93 1.93 0 0 1 1.39.5 2.61 2.61 0 0 1 .71 1.4 2.77 2.77 0 0 1 .4-.85 2.52 2.52 0 0 1 .59-.6 2.41 2.41 0 0 1 .73-.35 3 3 0 0 1 .81-.11 2.74 2.74 0 0 1 1.06.2 2.09 2.09 0 0 1 .8.58 2.65 2.65 0 0 1 .5.94 4.26 4.26 0 0 1 .18 1.28v5.08h-.76V8.47a2.73 2.73 0 0 0-.5-1.78 1.76 1.76 0 0 0-1.44-.61 2.13 2.13 0 0 0-.79.15 1.93 1.93 0 0 0-.67.45 2.18 2.18 0 0 0-.46.75 2.89 2.89 0 0 0-.17 1v5.08h-.77V8.47a2.93 2.93 0 0 0-.46-1.77 1.57 1.57 0 0 0-1.34-.61 2.05 2.05 0 0 0-1.2.38 3.65 3.65 0 0 0-1 1.06v6zM52.11 5.42a3.82 3.82 0 0 1 1.53.29 3.09 3.09 0 0 1 1.14.83 3.64 3.64 0 0 1 .71 1.29 5.44 5.44 0 0 1 .24 1.69 5.4 5.4 0 0 1-.24 1.68 3.64 3.64 0 0 1-.71 1.29 3.05 3.05 0 0 1-1.14.82 4.2 4.2 0 0 1-3.06 0 3.12 3.12 0 0 1-1.14-.82 3.64 3.64 0 0 1-.71-1.29 5.44 5.44 0 0 1-.24-1.68 5.48 5.48 0 0 1 .24-1.69 3.63 3.63 0 0 1 .71-1.29 3.16 3.16 0 0 1 1.14-.83 3.82 3.82 0 0 1 1.53-.29zm0 7.58a3 3 0 0 0 1.24-.24 2.35 2.35 0 0 0 .89-.7 3.08 3.08 0 0 0 .53-1.1 5.47 5.47 0 0 0 .18-1.44 5.48 5.48 0 0 0-.18-1.44A3.12 3.12 0 0 0 54.24 7a2.37 2.37 0 0 0-.89-.71 3.23 3.23 0 0 0-2.48 0A2.37 2.37 0 0 0 50 7a3.15 3.15 0 0 0-.54 1.11 5.34 5.34 0 0 0-.18 1.44 5.34 5.34 0 0 0 .17 1.45 3.11 3.11 0 0 0 .54 1.1 2.35 2.35 0 0 0 .89.7 3 3 0 0 0 1.23.2zM71.62 3.86l-3.55 11.3h-.73L64 5.36c0-.13-.08-.27-.11-.42 0 .14-.07.28-.11.42l-3.34 9.8h-.74l-3.56-11.3h.68a.28.28 0 0 1 .29.22L60 13.36q.09.32.16.73c0-.14.05-.27.08-.39a3.06 3.06 0 0 1 .1-.34l3.19-9.28a.35.35 0 0 1 .11-.15.3.3 0 0 1 .19-.06H64a.28.28 0 0 1 .18.06.39.39 0 0 1 .11.16l3.19 9.28a3.35 3.35 0 0 1 .1.34c0 .12.06.25.08.38l.08-.38c0-.12 0-.23.08-.34l2.85-9.28a.29.29 0 0 1 .11-.15.31.31 0 0 1 .2-.06zM76.59 3.86a4.48 4.48 0 0 1 3 .87 3.1 3.1 0 0 1 1 2.48 3.31 3.31 0 0 1-.28 1.37 3.06 3.06 0 0 1-.8 1.07 3.72 3.72 0 0 1-1.26.7 5.18 5.18 0 0 1-1.67.25h-2.1v4.55h-.82V3.86zm0 6.09a4 4 0 0 0 1.33-.21 3 3 0 0 0 1-.57 2.49 2.49 0 0 0 .63-.87 2.67 2.67 0 0 0 .22-1.09 2.53 2.53 0 0 0-.8-2 3.52 3.52 0 0 0-2.39-.7h-2.1V10z"></path> <circle class="cls-2" cx="9.51" cy="9.51" r="9.26"></circle> </g> </g> </svg> 