<?xml version="1.0" encoding="UTF-8"?> <svg xmlns="http://www.w3.org/2000/svg" viewBox="0 0 93 12.98"> <defs> <style>.cls-1{fill:#3c3c3b;}</style> </defs> <title>Fichier 2</title> <g id="Calque_2" data-name="Calque 2"> <g id="Calque_1-2" data-name="Calque 1"> <path class="cls-1" d="M9.64 10.78a.2.2 0 0 1 .15.06l.35.37a5.76 5.76 0 0 1-.83.73 5.07 5.07 0 0 1-1 .56 5.79 5.79 0 0 1-1.17.35 7.17 7.17 0 0 1-1.4.13 6 6 0 0 1-2.33-.45 5.23 5.23 0 0 1-1.81-1.26 5.71 5.71 0 0 1-1.18-2A7.52 7.52 0 0 1 0 6.71a7.18 7.18 0 0 1 .43-2.55 5.85 5.85 0 0 1 1.21-2A5.37 5.37 0 0 1 3.52.9a6.2 6.2 0 0 1 2.4-.45 5.93 5.93 0 0 1 2.23.39 6 6 0 0 1 1.77 1.1l-.27.39a.24.24 0 0 1-.22.1.7.7 0 0 1-.34-.19 4.46 4.46 0 0 0-.65-.42 5.5 5.5 0 0 0-1-.42 5.07 5.07 0 0 0-1.48-.19 5.28 5.28 0 0 0-2 .38 4.48 4.48 0 0 0-1.65 1.09 5 5 0 0 0-1 1.73 6.67 6.67 0 0 0-.41 2.3A6.68 6.68 0 0 0 1.28 9a5.08 5.08 0 0 0 1 1.73 4.47 4.47 0 0 0 1.55 1.08 5 5 0 0 0 1.94.38A7.13 7.13 0 0 0 7 12.13a4.52 4.52 0 0 0 .95-.26 4.25 4.25 0 0 0 .81-.42 6.09 6.09 0 0 0 .74-.59l.09-.06zM15.36 4.09A4.14 4.14 0 0 1 17 4.4a3.38 3.38 0 0 1 1.23.9A4 4 0 0 1 19 6.7a5.94 5.94 0 0 1 .26 1.83 5.9 5.9 0 0 1-.26 1.83 4 4 0 0 1-.77 1.39 3.34 3.34 0 0 1-1.23.89 4.57 4.57 0 0 1-3.32 0 3.38 3.38 0 0 1-1.24-.89 3.93 3.93 0 0 1-.77-1.39 5.9 5.9 0 0 1-.26-1.83 5.94 5.94 0 0 1 .26-1.83 3.94 3.94 0 0 1 .77-1.4 3.42 3.42 0 0 1 1.24-.9 4.14 4.14 0 0 1 1.68-.31zm0 8.22a3.2 3.2 0 0 0 1.35-.31 2.54 2.54 0 0 0 1-.76 3.34 3.34 0 0 0 .58-1.19 5.94 5.94 0 0 0 .19-1.56A6 6 0 0 0 18.24 7a3.39 3.39 0 0 0-.58-1.2 2.57 2.57 0 0 0-1-.77A3.51 3.51 0 0 0 14 5a2.57 2.57 0 0 0-1 .77A3.43 3.43 0 0 0 12.47 7a5.8 5.8 0 0 0-.2 1.56 5.79 5.79 0 0 0 .2 1.56 3.38 3.38 0 0 0 .58 1.19A2.54 2.54 0 0 0 14 12a3.2 3.2 0 0 0 1.36.3zM22.4 5.73a4.89 4.89 0 0 1 1.38-1.2 3.44 3.44 0 0 1 1.74-.45 3.24 3.24 0 0 1 1.25.22 2.3 2.3 0 0 1 .9.65 2.87 2.87 0 0 1 .54 1 4.63 4.63 0 0 1 .18 1.35v5.51h-.83V7.33a3 3 0 0 0-.56-1.9 2 2 0 0 0-1.69-.69 3.05 3.05 0 0 0-1.57.43 4.44 4.44 0 0 0-1.3 1.19v6.48h-.83V4.22h.46a.23.23 0 0 1 .25.22zM35.87 5.29a.22.22 0 0 1-.2.12.45.45 0 0 1-.24-.11 3.6 3.6 0 0 0-.43-.24 3.19 3.19 0 0 0-.61-.24 3.14 3.14 0 0 0-.88-.11 2.59 2.59 0 0 0-.85.13 2.11 2.11 0 0 0-.66.36 1.56 1.56 0 0 0-.42.52 1.4 1.4 0 0 0-.15.63 1.07 1.07 0 0 0 .21.68 1.79 1.79 0 0 0 .54.46 4 4 0 0 0 .77.33l.88.28c.3.09.59.2.88.31a3.23 3.23 0 0 1 .77.42 2 2 0 0 1 .54.62 1.74 1.74 0 0 1 .21.88 2.71 2.71 0 0 1-.2 1 2.34 2.34 0 0 1-.58.84 2.83 2.83 0 0 1-.95.56 3.72 3.72 0 0 1-1.29.21 3.87 3.87 0 0 1-1.57-.29 4.41 4.41 0 0 1-1.18-.76l.19-.29a.29.29 0 0 1 .1-.1.27.27 0 0 1 .15 0 .47.47 0 0 1 .27.14 3 3 0 0 0 .43.3 3.59 3.59 0 0 0 .66.3 2.94 2.94 0 0 0 1 .14 2.79 2.79 0 0 0 1-.15 2 2 0 0 0 .69-.41 1.72 1.72 0 0 0 .42-.61 2 2 0 0 0 .14-.74 1.18 1.18 0 0 0-.21-.72 1.77 1.77 0 0 0-.55-.48 3.78 3.78 0 0 0-.75-.35l-.88-.28q-.45-.14-.88-.3a3.14 3.14 0 0 1-.77-.42 2 2 0 0 1-.55-.61 1.76 1.76 0 0 1-.21-.9 2.06 2.06 0 0 1 .2-.88 2.27 2.27 0 0 1 .57-.74 2.78 2.78 0 0 1 .9-.51 3.48 3.48 0 0 1 1.19-.19 4 4 0 0 1 1.4.22A3.29 3.29 0 0 1 36 5zM45.18 4.22v8.61h-.46a.23.23 0 0 1-.25-.22l-.08-1.28a4.89 4.89 0 0 1-1.39 1.2 3.44 3.44 0 0 1-1.74.45 3.24 3.24 0 0 1-1.26-.23 2.31 2.31 0 0 1-.89-.65 2.87 2.87 0 0 1-.54-1 4.64 4.64 0 0 1-.18-1.35V4.22h.83v5.51a3 3 0 0 0 .55 1.9 2 2 0 0 0 1.69.69 3.05 3.05 0 0 0 1.54-.43 4.43 4.43 0 0 0 1.3-1.19V4.22zM48.92.24v12.6h-.83V.24zM54.19 13a1.85 1.85 0 0 1-1.36-.49 2 2 0 0 1-.49-1.5v-5.9H51.1a.23.23 0 0 1-.16-.05.18.18 0 0 1-.06-.15v-.32l1.47-.1.21-3.08a.3.3 0 0 1 .07-.14.18.18 0 0 1 .15-.06h.39v3.28h2.72v.62h-2.72V11a1.83 1.83 0 0 0 .09.61 1.15 1.15 0 0 0 .25.42 1 1 0 0 0 .38.24 1.36 1.36 0 0 0 .47.08 1.42 1.42 0 0 0 .54-.09 2.14 2.14 0 0 0 .39-.2l.27-.2a.3.3 0 0 1 .16-.09.18.18 0 0 1 .14.09l.23.36a2.41 2.41 0 0 1-.84.58 2.61 2.61 0 0 1-1.06.2zM68.17 12.84h-.77a.82.82 0 0 1-.26 0 .72.72 0 0 1-.23-.16l-1.78-1.74a6.2 6.2 0 0 1-.85.83 5.79 5.79 0 0 1-1 .65 5.55 5.55 0 0 1-1.17.43 5.35 5.35 0 0 1-1.31.15 4 4 0 0 1-1.28-.22 3.46 3.46 0 0 1-1.13-.64 3.2 3.2 0 0 1-.8-1 3 3 0 0 1-.31-1.39 3.22 3.22 0 0 1 .23-1.19 3.89 3.89 0 0 1 .61-1 4.58 4.58 0 0 1 .88-.93A5.28 5.28 0 0 1 60.2 6a5.68 5.68 0 0 1-.93-1.35A3.24 3.24 0 0 1 59 3.28a2.83 2.83 0 0 1 .22-1.12 2.64 2.64 0 0 1 .63-.9 2.94 2.94 0 0 1 1-.6 3.53 3.53 0 0 1 1.21-.21 3 3 0 0 1 1.1.2 3 3 0 0 1 .9.54 2.65 2.65 0 0 1 .62.78 2.21 2.21 0 0 1 .25.93l-.47.1a.21.21 0 0 1-.16 0 .32.32 0 0 1-.12-.17 2.16 2.16 0 0 0-.59-1.08 2.23 2.23 0 0 0-.59-.47 2.1 2.1 0 0 0-.89-.18 2.65 2.65 0 0 0-.94.16 2.13 2.13 0 0 0-.73.45 2.05 2.05 0 0 0-.47.69 2.24 2.24 0 0 0-.17.87 2.74 2.74 0 0 0 .36 1.36A6.41 6.41 0 0 0 61.24 6l3.87 3.8a6.16 6.16 0 0 0 .61-1.29A6.31 6.31 0 0 0 66 7.23a.36.36 0 0 1 .07-.18.19.19 0 0 1 .18-.05h.48a5.7 5.7 0 0 1-.3 1.68 6.6 6.6 0 0 1-.82 1.65zM60.6 6.45a5 5 0 0 0-1 .57 3.84 3.84 0 0 0-.78.75 3.33 3.33 0 0 0-.49.89 2.86 2.86 0 0 0-.17 1 2.49 2.49 0 0 0 .26 1.16 2.56 2.56 0 0 0 .66.83 2.79 2.79 0 0 0 .9.5 3.15 3.15 0 0 0 1 .16 4.58 4.58 0 0 0 2.16-.52 4.66 4.66 0 0 0 .87-.59 5.56 5.56 0 0 0 .72-.74l-4-3.91zM78.44 9.89a.47.47 0 0 1 .34.15l.92 1a5 5 0 0 1-1.87 1.45 6.45 6.45 0 0 1-2.67.5 6.31 6.31 0 0 1-2.51-.48 5.54 5.54 0 0 1-1.9-1.32 5.81 5.81 0 0 1-1.21-2 7.59 7.59 0 0 1-.42-2.57A7.16 7.16 0 0 1 69.56 4a5.94 5.94 0 0 1 1.27-2 5.74 5.74 0 0 1 2-1.32 6.47 6.47 0 0 1 2.46-.5 6.16 6.16 0 0 1 2.43.45 5.78 5.78 0 0 1 1.81 1.18l-.78 1.08a.68.68 0 0 1-.18.18.5.5 0 0 1-.3.08.57.57 0 0 1-.27-.07l-.3-.18-.38-.24a3.22 3.22 0 0 0-.5-.24 4.16 4.16 0 0 0-.66-.18 4.61 4.61 0 0 0-.87-.07 3.86 3.86 0 0 0-1.54.3 3.33 3.33 0 0 0-1.2.87 4 4 0 0 0-.78 1.39 5.81 5.81 0 0 0-.28 1.87 5.45 5.45 0 0 0 .3 1.88 4.1 4.1 0 0 0 .81 1.39 3.46 3.46 0 0 0 1.2.86 3.73 3.73 0 0 0 1.49.3 6.62 6.62 0 0 0 .86-.05 3.75 3.75 0 0 0 .71-.16 3.1 3.1 0 0 0 .61-.29 3.84 3.84 0 0 0 .58-.44.79.79 0 0 1 .18-.13.43.43 0 0 1 .21-.07zM83.47 1.37a1.2 1.2 0 0 1-.11.52 1.4 1.4 0 0 1-.3.42 1.42 1.42 0 0 1-.44.29 1.34 1.34 0 0 1-.54.11 1.28 1.28 0 0 1-.52-.11 1.38 1.38 0 0 1-.43-.29 1.4 1.4 0 0 1-.29-.42 1.24 1.24 0 0 1-.11-.52 1.32 1.32 0 0 1 .11-.54 1.36 1.36 0 0 1 .29-.43 1.4 1.4 0 0 1 .43-.29 1.29 1.29 0 0 1 .52-.11 1.35 1.35 0 0 1 .54.11 1.43 1.43 0 0 1 .44.29 1.37 1.37 0 0 1 .3.43 1.28 1.28 0 0 1 .11.54zM83.17 4v8.88H81V4zM87 8.67a4.23 4.23 0 0 0 .24 1.18 2.41 2.41 0 0 0 .5.82 2 2 0 0 0 .74.48 2.68 2.68 0 0 0 .95.16 3 3 0 0 0 .9-.12 4.11 4.11 0 0 0 .66-.27l.49-.27a.84.84 0 0 1 .41-.12.44.44 0 0 1 .4.2l.61.78a3.55 3.55 0 0 1-.8.7 4.49 4.49 0 0 1-.92.45 5.07 5.07 0 0 1-1 .24 7 7 0 0 1-1 .07 4.72 4.72 0 0 1-1.72-.31 3.83 3.83 0 0 1-1.39-.91 4.25 4.25 0 0 1-.93-1.49 5.75 5.75 0 0 1-.34-2.06 4.93 4.93 0 0 1 .29-1.71A4.13 4.13 0 0 1 86 5.1a4 4 0 0 1 1.34-.94 4.42 4.42 0 0 1 1.79-.35 4.35 4.35 0 0 1 1.55.27 3.39 3.39 0 0 1 1.22.78 3.63 3.63 0 0 1 .8 1.26 4.72 4.72 0 0 1 .3 1.72 1.39 1.39 0 0 1-.1.65.43.43 0 0 1-.4.17zm4.08-1.29a2.59 2.59 0 0 0-.08-.79 1.85 1.85 0 0 0-.35-.64 1.64 1.64 0 0 0-.65-.44 2 2 0 0 0-.84-.16 2 2 0 0 0-1.46.53 2.59 2.59 0 0 0-.7 1.5z"></path> </g> </g> </svg> 